<mxfile host="app.diagrams.net" modified="2023-11-13T00:44:19.650Z" agent="Mozilla/5.0 (Windows NT 10.0; Win64; x64) AppleWebKit/537.36 (KHTML, like Gecko) Chrome/119.0.0.0 Safari/537.36" etag="GnrExUkQAh0Ig16hzuf_" version="22.1.0" type="github">
  <diagram id="C5RBs43oDa-KdzZeNtuy" name="Page-1">
    <mxGraphModel dx="1434" dy="758" grid="1" gridSize="10" guides="1" tooltips="1" connect="1" arrows="1" fold="1" page="1" pageScale="1" pageWidth="827" pageHeight="1169" math="0" shadow="0">
      <root>
        <mxCell id="WIyWlLk6GJQsqaUBKTNV-0" />
        <mxCell id="WIyWlLk6GJQsqaUBKTNV-1" parent="WIyWlLk6GJQsqaUBKTNV-0" />
        <mxCell id="RXo6hEntLLhTDYUSKsS7-0" value="" style="ellipse;html=1;shape=endState;fillColor=#000000;strokeColor=#ff0000;" vertex="1" parent="WIyWlLk6GJQsqaUBKTNV-1">
          <mxGeometry x="384" y="660" width="30" height="30" as="geometry" />
        </mxCell>
        <mxCell id="RXo6hEntLLhTDYUSKsS7-1" value="" style="ellipse;html=1;shape=startState;fillColor=#000000;strokeColor=#ff0000;" vertex="1" parent="WIyWlLk6GJQsqaUBKTNV-1">
          <mxGeometry x="340" y="140" width="30" height="30" as="geometry" />
        </mxCell>
        <mxCell id="RXo6hEntLLhTDYUSKsS7-2" value="" style="edgeStyle=orthogonalEdgeStyle;html=1;verticalAlign=bottom;endArrow=open;endSize=8;strokeColor=#ff0000;rounded=0;" edge="1" source="RXo6hEntLLhTDYUSKsS7-1" parent="WIyWlLk6GJQsqaUBKTNV-1">
          <mxGeometry relative="1" as="geometry">
            <mxPoint x="355" y="230" as="targetPoint" />
          </mxGeometry>
        </mxCell>
        <mxCell id="RXo6hEntLLhTDYUSKsS7-5" value="clienteSolicitaPedido()" style="edgeLabel;html=1;align=center;verticalAlign=middle;resizable=0;points=[];" vertex="1" connectable="0" parent="RXo6hEntLLhTDYUSKsS7-2">
          <mxGeometry x="0.2393" y="1" relative="1" as="geometry">
            <mxPoint as="offset" />
          </mxGeometry>
        </mxCell>
        <mxCell id="RXo6hEntLLhTDYUSKsS7-8" value="" style="edgeStyle=orthogonalEdgeStyle;rounded=0;orthogonalLoop=1;jettySize=auto;html=1;" edge="1" parent="WIyWlLk6GJQsqaUBKTNV-1" source="RXo6hEntLLhTDYUSKsS7-3">
          <mxGeometry relative="1" as="geometry">
            <mxPoint x="359" y="355" as="targetPoint" />
          </mxGeometry>
        </mxCell>
        <mxCell id="RXo6hEntLLhTDYUSKsS7-9" value="clienteRealizaPago()" style="edgeLabel;html=1;align=center;verticalAlign=middle;resizable=0;points=[];" vertex="1" connectable="0" parent="RXo6hEntLLhTDYUSKsS7-8">
          <mxGeometry x="-0.1259" relative="1" as="geometry">
            <mxPoint as="offset" />
          </mxGeometry>
        </mxCell>
        <mxCell id="RXo6hEntLLhTDYUSKsS7-3" value="Pendiente" style="html=1;whiteSpace=wrap;" vertex="1" parent="WIyWlLk6GJQsqaUBKTNV-1">
          <mxGeometry x="304" y="230" width="110" height="50" as="geometry" />
        </mxCell>
        <mxCell id="RXo6hEntLLhTDYUSKsS7-12" style="edgeStyle=orthogonalEdgeStyle;rounded=0;orthogonalLoop=1;jettySize=auto;html=1;entryX=0;entryY=0.5;entryDx=0;entryDy=0;" edge="1" parent="WIyWlLk6GJQsqaUBKTNV-1" source="RXo6hEntLLhTDYUSKsS7-10" target="RXo6hEntLLhTDYUSKsS7-11">
          <mxGeometry relative="1" as="geometry" />
        </mxCell>
        <mxCell id="RXo6hEntLLhTDYUSKsS7-13" value="pizeroColocaPedido()" style="edgeLabel;html=1;align=center;verticalAlign=middle;resizable=0;points=[];" vertex="1" connectable="0" parent="RXo6hEntLLhTDYUSKsS7-12">
          <mxGeometry x="-0.2066" y="-2" relative="1" as="geometry">
            <mxPoint as="offset" />
          </mxGeometry>
        </mxCell>
        <mxCell id="RXo6hEntLLhTDYUSKsS7-21" style="edgeStyle=orthogonalEdgeStyle;rounded=0;orthogonalLoop=1;jettySize=auto;html=1;entryX=0.5;entryY=0;entryDx=0;entryDy=0;" edge="1" parent="WIyWlLk6GJQsqaUBKTNV-1" source="RXo6hEntLLhTDYUSKsS7-10" target="RXo6hEntLLhTDYUSKsS7-17">
          <mxGeometry relative="1" as="geometry" />
        </mxCell>
        <mxCell id="RXo6hEntLLhTDYUSKsS7-22" value="clienteCancelaPedido()" style="edgeLabel;html=1;align=center;verticalAlign=middle;resizable=0;points=[];" vertex="1" connectable="0" parent="RXo6hEntLLhTDYUSKsS7-21">
          <mxGeometry x="-0.3092" y="3" relative="1" as="geometry">
            <mxPoint as="offset" />
          </mxGeometry>
        </mxCell>
        <mxCell id="RXo6hEntLLhTDYUSKsS7-10" value="Cocina" style="rounded=0;whiteSpace=wrap;html=1;" vertex="1" parent="WIyWlLk6GJQsqaUBKTNV-1">
          <mxGeometry x="299" y="360" width="120" height="60" as="geometry" />
        </mxCell>
        <mxCell id="RXo6hEntLLhTDYUSKsS7-15" style="edgeStyle=orthogonalEdgeStyle;rounded=0;orthogonalLoop=1;jettySize=auto;html=1;exitX=0.5;exitY=1;exitDx=0;exitDy=0;entryX=0.5;entryY=0;entryDx=0;entryDy=0;" edge="1" parent="WIyWlLk6GJQsqaUBKTNV-1" source="RXo6hEntLLhTDYUSKsS7-11" target="RXo6hEntLLhTDYUSKsS7-14">
          <mxGeometry relative="1" as="geometry" />
        </mxCell>
        <mxCell id="RXo6hEntLLhTDYUSKsS7-16" value="pedidoTerminado()" style="edgeLabel;html=1;align=center;verticalAlign=middle;resizable=0;points=[];" vertex="1" connectable="0" parent="RXo6hEntLLhTDYUSKsS7-15">
          <mxGeometry x="0.075" y="-3" relative="1" as="geometry">
            <mxPoint as="offset" />
          </mxGeometry>
        </mxCell>
        <mxCell id="RXo6hEntLLhTDYUSKsS7-11" value="Preparacion" style="rounded=0;whiteSpace=wrap;html=1;" vertex="1" parent="WIyWlLk6GJQsqaUBKTNV-1">
          <mxGeometry x="610" y="360" width="120" height="60" as="geometry" />
        </mxCell>
        <mxCell id="RXo6hEntLLhTDYUSKsS7-19" style="edgeStyle=orthogonalEdgeStyle;rounded=0;orthogonalLoop=1;jettySize=auto;html=1;exitX=0.5;exitY=1;exitDx=0;exitDy=0;entryX=0.5;entryY=0;entryDx=0;entryDy=0;" edge="1" parent="WIyWlLk6GJQsqaUBKTNV-1" source="RXo6hEntLLhTDYUSKsS7-14" target="RXo6hEntLLhTDYUSKsS7-18">
          <mxGeometry relative="1" as="geometry" />
        </mxCell>
        <mxCell id="RXo6hEntLLhTDYUSKsS7-20" value="empaquetaPedido()&lt;br&gt;entregaPedido()&lt;br&gt;colocaPapel()" style="edgeLabel;html=1;align=center;verticalAlign=middle;resizable=0;points=[];" vertex="1" connectable="0" parent="RXo6hEntLLhTDYUSKsS7-19">
          <mxGeometry x="-0.075" y="-4" relative="1" as="geometry">
            <mxPoint as="offset" />
          </mxGeometry>
        </mxCell>
        <mxCell id="RXo6hEntLLhTDYUSKsS7-14" value="ListoParaEntregar" style="rounded=0;whiteSpace=wrap;html=1;" vertex="1" parent="WIyWlLk6GJQsqaUBKTNV-1">
          <mxGeometry x="610" y="500" width="120" height="60" as="geometry" />
        </mxCell>
        <mxCell id="RXo6hEntLLhTDYUSKsS7-23" style="edgeStyle=orthogonalEdgeStyle;rounded=0;orthogonalLoop=1;jettySize=auto;html=1;exitX=0.5;exitY=1;exitDx=0;exitDy=0;entryX=0;entryY=0.5;entryDx=0;entryDy=0;" edge="1" parent="WIyWlLk6GJQsqaUBKTNV-1" source="RXo6hEntLLhTDYUSKsS7-17" target="RXo6hEntLLhTDYUSKsS7-0">
          <mxGeometry relative="1" as="geometry" />
        </mxCell>
        <mxCell id="RXo6hEntLLhTDYUSKsS7-17" value="Cancelado" style="rounded=0;whiteSpace=wrap;html=1;" vertex="1" parent="WIyWlLk6GJQsqaUBKTNV-1">
          <mxGeometry x="100" y="500" width="120" height="60" as="geometry" />
        </mxCell>
        <mxCell id="RXo6hEntLLhTDYUSKsS7-24" style="edgeStyle=orthogonalEdgeStyle;rounded=0;orthogonalLoop=1;jettySize=auto;html=1;exitX=0;exitY=0.5;exitDx=0;exitDy=0;entryX=1;entryY=0.5;entryDx=0;entryDy=0;" edge="1" parent="WIyWlLk6GJQsqaUBKTNV-1" source="RXo6hEntLLhTDYUSKsS7-18" target="RXo6hEntLLhTDYUSKsS7-0">
          <mxGeometry relative="1" as="geometry" />
        </mxCell>
        <mxCell id="RXo6hEntLLhTDYUSKsS7-18" value="Entregados" style="rounded=0;whiteSpace=wrap;html=1;" vertex="1" parent="WIyWlLk6GJQsqaUBKTNV-1">
          <mxGeometry x="610" y="645" width="120" height="60" as="geometry" />
        </mxCell>
      </root>
    </mxGraphModel>
  </diagram>
</mxfile>
